# xmcd CD database file
#
# Track frame offsets:
#	150
#	5575
#	21017
#	42742
#	61910
#	64380
#	84860
#	87777
#	105492
#	113827
#	129692
#	131740
#	146557
#	163127
#	166535
#	187050
#	198040
#	208325
#	225297
#
# Disc length: 3207 seconds
#
# Revision: 3
# Processed by: cddbd v1.5.1PL2 Copyright (c) Steve Scherf et al.
# Submitted via: CDex 1.51
#
DISCID=020c8513
DTITLE=Dreddy Kruger Presents... Think Differently Music: - Wu-Tang Meets The Indie Culture
DYEAR=2005
DGENRE=Hip Hop
TTITLE0=Wu-Tang Meets The Indie Culture - Introduction:
TTITLE1=Gza and Ras Kass - Lyrical Swords
TTITLE2=Vast Aire, Timbo King, Prodigal Sunn, and Byata - Slow Blues
TTITLE3=Sean Price, U-God, C-Rayz Walz, and Prodigal Sunn - Still Grimey
TTITLE4=Wu-Tang Meets The Indie Culture - Skit
TTITLE5=Casual, Rock Marciano, Vordul Mega, and Tragedy Khadafi - Think Differently
TTITLE6=Narrated By Jim Jarmusch - Infomercial #1
TTITLE7=Rza and MF Doom - Biochemical Equation
TTITLE8=DJ Noize - O.D.B. Tribute
TTITLE9=Del Tha Funky Homosapien - Fragments
TTITLE10=Wu-Tang Meets The Indie Culture - Intermission:
TTITLE11=Bronze Nazareth, Solomon Childs, and Byata - Street Corners
TTITLE12=Littles, Khalid, and Planet Asia - Listen
TTITLE13=Narrated By Jim Jarmusch - Infomercial: #2
TTITLE14=La The Darkman, Scaramanga Shallah, Ras Kass and Gza - Verses
TTITLE15=Aesop Rock and Del Tha Funky Homosapien - Preservation
TTITLE16=C.C.F. - Cars On The Interstate...
TTITLE17=J-Live and R.A. The Rugged Man - Give It Up
TTITLE18=Bronze Nazareth - Black Dawn
EXTD=YEAR: 2005
EXTT0=
EXTT1=
EXTT2=
EXTT3=
EXTT4=
EXTT5=
EXTT6=
EXTT7=
EXTT8=
EXTT9=
EXTT10=
EXTT11=
EXTT12=
EXTT13=
EXTT14=
EXTT15=
EXTT16=
EXTT17=
EXTT18=
PLAYORDER=
